<svg xmlns="http://www.w3.org/2000/svg" width="44.749" height="51.141" viewBox="0 0 44.749 51.141">
  <path id="Icon_awesome-book" data-name="Icon awesome-book" d="M44.749,35.959V2.4a2.391,2.391,0,0,0-2.4-2.4H9.589A9.591,9.591,0,0,0,0,9.589V41.552a9.591,9.591,0,0,0,9.589,9.589H42.351a2.391,2.391,0,0,0,2.4-2.4v-1.6a2.416,2.416,0,0,0-.889-1.868,22.275,22.275,0,0,1,0-7.461A2.38,2.38,0,0,0,44.749,35.959ZM12.785,13.385a.6.6,0,0,1,.6-.6H34.56a.6.6,0,0,1,.6.6v2a.6.6,0,0,1-.6.6H13.385a.6.6,0,0,1-.6-.6Zm0,6.393a.6.6,0,0,1,.6-.6H34.56a.6.6,0,0,1,.6.6v2a.6.6,0,0,1-.6.6H13.385a.6.6,0,0,1-.6-.6ZM38.1,44.749H9.589a3.2,3.2,0,0,1,0-6.393H38.1A35.96,35.96,0,0,0,38.1,44.749Z"/>
</svg>
