<svg xmlns="http://www.w3.org/2000/svg" width="58.867" height="58.867" viewBox="0 0 58.867 58.867">
  <path id="Icon_simple-javascript" data-name="Icon simple-javascript" d="M0,0H58.867V58.867H0ZM54.044,44.827c-.429-2.686-2.178-4.942-7.366-7.047-1.805-.846-3.812-1.435-4.408-2.8a2.9,2.9,0,0,1-.113-1.729c.368-1.584,2.244-2.06,3.716-1.619a3.99,3.99,0,0,1,2.394,2.207c2.536-1.658,2.536-1.658,4.3-2.759a10.123,10.123,0,0,0-1.437-1.913c-1.545-1.729-3.6-2.612-6.951-2.536l-1.729.218a7.907,7.907,0,0,0-4.194,2.465,7.7,7.7,0,0,0,1.4,10.966c3.348,2.5,8.244,3.051,8.869,5.408.589,2.87-2.134,3.79-4.822,3.458a6.458,6.458,0,0,1-4.3-3.277L34.91,48.452a9.919,9.919,0,0,0,1.987,2.72c4.268,4.307,14.937,4.086,16.853-2.463a8.3,8.3,0,0,0,.182-4.047l.113.164ZM32.011,27.057H26.5c0,4.753-.022,9.478-.022,14.238,0,3.022.155,5.8-.338,6.649-.809,1.69-2.894,1.474-3.841,1.177a4.733,4.733,0,0,1-2.036-2.1,2.1,2.1,0,0,0-.312-.481L15.472,49.3a8.676,8.676,0,0,0,3.247,3.721,10.794,10.794,0,0,0,7.866.993,6.889,6.889,0,0,0,4.442-3.461c1.251-2.281.986-5.077.974-8.207.029-5.038,0-10.078,0-15.156l.01-.137Z"/>
</svg>
