<svg xmlns="http://www.w3.org/2000/svg" width="53.86" height="48.815" viewBox="0 0 53.86 48.815">
  <path id="Icon_awesome-sketch" data-name="Icon awesome-sketch" d="M2.649,16.437.633,19.15h9.861l.752-14.241ZM42.834,3.743,28.821,2.25,43.607,18.289,42.834,3.743ZM11.878,22.55l-1.22-2.4H.731L25.236,48.668Zm.218-3.4H43.041L34.16,9.507,27.579,2.359Zm32.394.992L29.9,48.668,54.395,20.152h-9.9Zm.425-13.86L43.891,4.909l.1,1.885.665,12.356h9.839Zm-32.9,2.67-.5,9.327L26.315,2.25,12.3,3.743Zm31.348,11.19h-31.6l4.62,9.033,11.19,21.891L43.368,20.142Z" transform="translate(-0.633 -2.25)"/>
</svg>
