<svg xmlns="http://www.w3.org/2000/svg" width="76.6" height="67.029" viewBox="0 0 76.6 67.029">
  <path id="Icon_awesome-react" data-name="Icon awesome-react" d="M62.567,23.972q-1.212-.4-2.424-.763c.135-.554.254-1.107.374-1.661,1.84-8.917.628-16.083-3.456-18.447-3.935-2.259-10.353.09-16.846,5.745-.643.554-1.272,1.137-1.87,1.721-.4-.389-.823-.778-1.242-1.152C30.3,3.371,23.474.828,19.389,3.207c-3.92,2.274-5.087,9.021-3.441,17.459.165.838.344,1.661.554,2.5-.957.269-1.9.569-2.783.883C5.73,26.815,0,31.183,0,35.7c0,4.668,6.1,9.351,14.407,12.193.673.224,1.346.449,2.035.643-.224.9-.419,1.78-.6,2.693-1.571,8.3-.344,14.886,3.576,17.145,4.039,2.334,10.832-.06,17.444-5.85.524-.464,1.047-.943,1.571-1.451.658.643,1.346,1.257,2.035,1.855,6.4,5.506,12.732,7.735,16.637,5.476,4.039-2.334,5.356-9.41,3.65-18.028q-.2-.987-.449-2.02c.479-.135.943-.284,1.406-.434C70.346,45.067,76.6,40.444,76.6,35.7c0-4.533-5.895-8.932-14.033-11.729ZM42.324,11.27C47.89,6.423,53.081,4.523,55.445,5.885c2.528,1.451,3.5,7.316,1.915,15.021-.1.509-.209,1-.344,1.5a76.589,76.589,0,0,0-10.069-1.586,75.59,75.59,0,0,0-6.373-7.944c.583-.554,1.152-1.077,1.75-1.6Zm-17.31,32.2c.763,1.3,1.541,2.6,2.364,3.875a67.746,67.746,0,0,1-6.942-1.122,69.888,69.888,0,0,1,2.439-6.658c.688,1.317,1.391,2.618,2.139,3.9Zm-4.533-18c2.154-.479,4.443-.868,6.822-1.167-.793,1.242-1.571,2.513-2.3,3.8s-1.451,2.573-2.124,3.89c-.943-2.229-1.735-4.413-2.394-6.523Zm4.1,10.308c.987-2.065,2.065-4.084,3.2-6.074s2.364-3.92,3.65-5.82c2.244-.165,4.533-.254,6.867-.254s4.638.09,6.867.254q1.908,2.828,3.636,5.79t3.247,6.044q-1.5,3.1-3.232,6.1c-1.137,1.99-2.349,3.92-3.621,5.835-2.229.165-4.548.239-6.9.239s-4.623-.075-6.822-.209q-1.952-2.85-3.68-5.835c-1.152-1.99-2.214-4.01-3.217-6.074ZM51.6,43.436c.763-1.317,1.481-2.648,2.184-3.995a69.451,69.451,0,0,1,2.528,6.628,65.713,65.713,0,0,1-7.032,1.2C50.089,46.01,50.852,44.723,51.6,43.436Zm2.154-11.445c-.7-1.317-1.421-2.633-2.169-3.92s-1.5-2.528-2.289-3.77a68.848,68.848,0,0,1,6.867,1.2,66.209,66.209,0,0,1-2.409,6.493ZM38.33,15.16a65.7,65.7,0,0,1,4.428,5.356c-2.962-.135-5.939-.135-8.9,0C35.323,18.586,36.834,16.791,38.33,15.16ZM20.975,5.989c2.513-1.466,8.094.628,13.974,5.835.374.329.748.688,1.137,1.047a76.01,76.01,0,0,0-6.418,7.944,78.864,78.864,0,0,0-10.054,1.556c-.194-.763-.359-1.541-.524-2.319-1.406-7.241-.479-12.7,1.885-14.063ZM17.31,45.426c-.628-.18-1.242-.374-1.855-.583a30.513,30.513,0,0,1-9.425-4.668A6.713,6.713,0,0,1,3.217,35.7c0-2.738,4.728-6.239,11.55-8.617.853-.3,1.721-.569,2.588-.823a79.553,79.553,0,0,0,3.665,9.515,81.78,81.78,0,0,0-3.71,9.65ZM34.754,60.088a27.383,27.383,0,0,1-8.438,5.281,6.622,6.622,0,0,1-5.281.194c-2.379-1.376-3.366-6.658-2.02-13.764.165-.838.344-1.676.554-2.5a74.845,74.845,0,0,0,10.158,1.466,78.953,78.953,0,0,0,6.463,7.989C35.712,59.22,35.233,59.669,34.754,60.088Zm3.665-3.636c-1.526-1.646-3.052-3.471-4.533-5.431,1.436.06,2.917.09,4.413.09,1.541,0,3.052-.03,4.548-.1a64.519,64.519,0,0,1-4.428,5.446Zm19.554,4.488a6.649,6.649,0,0,1-2.469,4.683C53.126,67,48.055,65.2,42.579,60.507c-.628-.539-1.257-1.122-1.9-1.721a74.009,74.009,0,0,0,6.314-8.019A73.752,73.752,0,0,0,57.2,49.2c.15.613.284,1.227.4,1.825a27.273,27.273,0,0,1,.374,9.919ZM60.7,44.858c-.419.135-.838.269-1.272.389A76,76,0,0,0,55.61,35.7a75.622,75.622,0,0,0,3.665-9.41c.778.224,1.526.464,2.244.7,6.972,2.394,11.864,5.954,11.864,8.677,0,2.932-5.221,6.717-12.687,9.186ZM38.3,42.614a6.852,6.852,0,1,0-6.852-6.852A6.851,6.851,0,0,0,38.3,42.614Z" transform="translate(0 -2.251)"/>
</svg>
