<svg xmlns="http://www.w3.org/2000/svg" width="69.594" height="66" viewBox="0 0 69.594 66">
  <path id="Icon_simple-redux" data-name="Icon simple-redux" d="M48.235,46.991A4.826,4.826,0,0,0,52.582,41.9a5.007,5.007,0,0,0-4.953-4.779h-.177a4.958,4.958,0,0,0-4.779,5.13A5.294,5.294,0,0,0,44.1,45.6C41.066,51.51,36.5,55.854,29.594,59.5A23.792,23.792,0,0,1,15.256,62.2,12.5,12.5,0,0,1,6.22,56.985,12.958,12.958,0,0,1,5.48,43.256a20.49,20.49,0,0,1,6.087-7.085A28.882,28.882,0,0,1,10.35,31.7C-2.515,40.913-1.207,53.511,2.7,59.464c2.912,4.344,8.865,7.122,15.381,7.122a22.568,22.568,0,0,0,5.345-.563A34,34,0,0,0,48.194,47.081l.041-.09ZM63.743,36.128C57.013,28.22,47.1,23.876,35.805,23.876H34.326a4.676,4.676,0,0,0-4.341-2.607h-.13a4.863,4.863,0,0,0-4.776,5.084,5.007,5.007,0,0,0,4.953,4.779h.215A4.9,4.9,0,0,0,34.59,28.09H36.2a33.649,33.649,0,0,1,18.815,5.777,23.818,23.818,0,0,1,9.384,11.3A12,12,0,0,1,64.268,55.6a12.916,12.916,0,0,1-12.165,7.3,22.681,22.681,0,0,1-8.6-1.868c-1.041.864-2.781,2.3-4.043,3.17a27.9,27.9,0,0,0,11.426,2.735c8.474,0,14.769-4.776,17.162-9.384,2.6-5.214,2.39-13.989-4.26-21.506ZM18.82,48.552a5,5,0,0,0,4.953,4.779h.174a4.953,4.953,0,0,0-.131-9.9H23.64a1.869,1.869,0,0,0-.652.084,32.453,32.453,0,0,1-4.559-19.636A23.586,23.586,0,0,1,23.64,10.145c2.607-3.26,7.517-4.869,10.863-4.953,9.384-.177,13.3,11.516,13.6,16.164l4.344,1.3C51.445,8.408,42.585.931,34.112.931c-7.952,0-15.291,5.78-18.249,14.253-4.04,11.3-1.389,22.159,3.564,30.85a3.844,3.844,0,0,0-.606,2.517Z" transform="translate(0 -0.931)"/>
</svg>
