<svg xmlns="http://www.w3.org/2000/svg" width="55.325" height="55.325" viewBox="0 0 55.325 55.325">
  <path id="Icon_awesome-bootstrap" data-name="Icon awesome-bootstrap" d="M36.1,36.82c0,5.237-4.905,5.116-5.424,5.116H20.684V31.848h9.989c5.256,0,5.424,3.939,5.424,4.972ZM29.9,27.788c.083,0,4.747.123,4.747-4.484,0-1.917-.433-4.43-4.747-4.43h-9.22v8.914ZM55.325,11.471V48.354A9.248,9.248,0,0,1,46.1,57.575H9.221A9.248,9.248,0,0,1,0,48.354V11.471A9.248,9.248,0,0,1,9.221,2.25H46.1a9.248,9.248,0,0,1,9.221,9.221ZM41.747,37.552c0-2.664-.821-7.2-6.057-8.317v-.09A7.075,7.075,0,0,0,40.3,22.273c0-.864.247-8-9.583-8H15.034V46.546c15.836,0,17.273.207,20.2-.705,1.755-.546,6.509-2.22,6.509-8.289Z" transform="translate(0 -2.25)"/>
</svg>
