<svg xmlns="http://www.w3.org/2000/svg" width="58.532" height="57.069" viewBox="0 0 58.532 57.069">
  <path id="Icon_simple-adobexd" data-name="Icon simple-adobexd" d="M48.167.45h-37.8A10.356,10.356,0,0,0,0,10.815V47.154A10.356,10.356,0,0,0,10.365,57.519h37.8A10.356,10.356,0,0,0,58.532,47.154V10.815A10.356,10.356,0,0,0,48.167.45Zm7.9,45.753A8.836,8.836,0,0,1,47.24,55.08H11.292a8.868,8.868,0,0,1-8.853-8.853V11.742a8.868,8.868,0,0,1,8.853-8.853H47.216a8.853,8.853,0,0,1,8.853,8.853ZM23.145,27.155l6.829,13.121c.122.2.049.39-.146.39H25.584a.479.479,0,0,1-.512-.317c-1.561-3.219-3.146-6.439-4.78-9.9h-.049c-1.463,3.268-3.073,6.707-4.634,9.926a.468.468,0,0,1-.439.268H11.146c-.244,0-.268-.2-.146-.341L17.682,27.57,11.219,14.693a.2.2,0,0,1,.146-.341H15.56A.384.384,0,0,1,16,14.62c1.536,3.219,3.1,6.536,4.561,9.78h.049c1.415-3.219,2.975-6.561,4.487-9.755.122-.2.2-.317.439-.317h3.927c.2,0,.268.146.146.341Zm8.024,3.975c0-5.683,3.78-10.121,9.78-10.121a10.815,10.815,0,0,1,1.268.049V14.6a.244.244,0,0,1,.244-.244h3.853c.2,0,.244.073.244.2V36.935a17.371,17.371,0,0,0,.122,2.39c0,.146-.049.2-.2.268a14.527,14.527,0,0,1-6.243,1.415C34.949,41.032,31.168,37.764,31.168,31.131Zm11.048-6.243a3.688,3.688,0,0,0-1.415-.244c-3.073,0-5.219,2.366-5.219,6.292,0,4.487,2.195,6.292,4.951,6.292a4.6,4.6,0,0,0,1.683-.268V24.887Z" transform="translate(0 -0.45)"/>
</svg>
