<svg xmlns="http://www.w3.org/2000/svg" width="55.925" height="54.527" viewBox="0 0 55.925 54.527">
  <path id="Icon_simple-adobephotoshop" data-name="Icon simple-adobephotoshop" d="M0,.45V54.977H55.925V.45ZM2.33,2.78H53.595V52.647H2.33ZM13.515,13.22c0-.156.326-.27.522-.27,1.5-.077,3.7-.117,6.007-.117,6.459,0,8.971,3.542,8.971,8.077,0,5.919-4.292,8.459-9.559,8.459-.885,0-1.188-.04-1.806-.04v8.953c0,.193-.077.27-.268.27h-3.6c-.193,0-.268-.07-.268-.263V13.22ZM17.651,25.6c.536.037.96.037,1.887.037,2.726,0,5.29-.96,5.29-4.651,0-2.959-1.832-4.46-4.945-4.46-.923,0-1.806.037-2.23.077v9Zm20.056-2.768c-1.846,0-2.461.923-2.461,1.692,0,.846.419,1.421,2.882,2.691,3.654,1.771,4.8,3.46,4.8,5.958,0,3.728-2.843,5.732-6.688,5.732a10.181,10.181,0,0,1-4.777-1c-.151-.077-.186-.191-.186-.384V34.1c0-.233.112-.31.266-.2a8.584,8.584,0,0,0,4.688,1.384c1.846,0,2.615-.769,2.615-1.808,0-.846-.536-1.578-2.882-2.808-3.309-1.585-4.693-3.192-4.693-5.888,0-3,2.344-5.5,6.42-5.5a10.861,10.861,0,0,1,4.18.652.508.508,0,0,1,.233.461v3.192c0,.193-.117.31-.35.233a8.345,8.345,0,0,0-4.062-1Z" transform="translate(0 -0.45)"/>
</svg>
