<svg xmlns="http://www.w3.org/2000/svg" width="55.667" height="55.667" viewBox="0 0 55.667 55.667">
  <path id="Icon_simple-materialdesign" data-name="Icon simple-materialdesign" d="M27.833,0A27.833,27.833,0,1,0,55.667,27.833,27.846,27.846,0,0,0,27.833,0Zm0,1.74A25.968,25.968,0,0,1,45.157,8.35H10.507A25.971,25.971,0,0,1,27.833,1.74ZM11.166,10.09H44.5L27.833,43.427,11.166,10.09Zm-2.816.417V45.16a26.006,26.006,0,0,1,0-34.648Zm38.967,0a26.009,26.009,0,0,1,0,34.65ZM10.09,11.829,26.964,45.577H10.09Zm35.488,0V45.577H28.7L45.579,11.829ZM10.514,47.317H45.157a26,26,0,0,1-34.646,0Z"/>
</svg>
