<svg xmlns="http://www.w3.org/2000/svg" width="56.267" height="54.86" viewBox="0 0 56.267 54.86">
  <path id="Icon_simple-adobeillustrator" data-name="Icon simple-adobeillustrator" d="M0,.45V55.31H56.267V.45ZM2.344,2.794H53.922V52.966H2.344Zm17.173,28.72-1.857,7.029c-.04.195-.117.239-.347.239H13.872c-.234,0-.27-.077-.234-.347L20.3,15.119a7.232,7.232,0,0,0,.23-1.953c0-.155.077-.234.195-.234h4.914c.155,0,.234.042.272.234l7.467,25.306c.04.195,0,.309-.195.309H29.31c-.195,0-.309-.047-.347-.2l-1.934-7.069H19.511Zm6.536-3.81c-.656-2.593-2.2-8.271-2.785-11.019h-.04c-.5,2.743-1.74,7.385-2.708,11.019ZM36.6,14.674a2.4,2.4,0,0,1,4.8,0,2.246,2.246,0,0,1-2.438,2.4,2.2,2.2,0,0,1-2.368-2.4Zm.263,5.331c0-.188.077-.258.272-.258h3.681c.206,0,.281.077.281.272V38.529c0,.195-.038.272-.27.272H37.2c-.234,0-.312-.117-.312-.3V20Z" transform="translate(0 -0.45)"/>
</svg>
