<svg xmlns="http://www.w3.org/2000/svg" xmlns:xlink="http://www.w3.org/1999/xlink" width="372.045" height="170" viewBox="0 0 372.045 170">
  <defs>
    <filter id="Path_1" x="0" y="0" width="372.045" height="170" filterUnits="userSpaceOnUse">
      <feOffset dy="3" input="SourceAlpha"/>
      <feGaussianBlur stdDeviation="3" result="blur"/>
      <feFlood flood-opacity="0.161"/>
      <feComposite operator="in" in2="blur"/>
      <feComposite in="SourceGraphic"/>
    </filter>
  </defs>
  <g transform="matrix(1, 0, 0, 1, 0, 0)" filter="url(#Path_1)">
    <g id="Path_1-2" data-name="Path 1" transform="translate(27.05 6)" fill="#363636">
      <path d="M 315.0000305175781 151.5 L 21.00002288818359 151.5 C 18.23229598999023 151.5 15.54765892028809 150.9580383300781 13.02065944671631 149.8892211914063 C 10.57956790924072 148.8567199707031 8.38715934753418 147.3785400390625 6.504341125488281 145.4956817626953 C 4.621477603912354 143.6128692626953 3.143295526504517 141.4204559326172 2.110795497894287 138.9793701171875 C 1.041977405548096 136.4523620605469 0.500022828578949 133.7677307128906 0.500022828578949 131 L 0.500022828578949 40.2471809387207 L 0.500022828578949 39.95840835571289 L 0.2498864680528641 39.81409072875977 L -16.98204612731934 29.87335395812988 L 0.2199319303035736 21.44904518127441 L 0.500022828578949 21.31186294555664 L 0.500022828578949 21 C 0.500022828578949 18.23231887817383 1.041977405548096 15.54763603210449 2.110795497894287 13.02063655853271 C 3.143295526504517 10.57959079742432 4.621477603912354 8.387182235717773 6.504341125488281 6.504318237304688 C 8.38715934753418 4.62145471572876 10.57956790924072 3.143272638320923 13.02065944671631 2.110772609710693 C 15.54765892028809 1.041954517364502 18.23229598999023 0.5 21.00002288818359 0.5 L 315.0000305175781 0.5 C 317.7677001953125 0.5 320.4523315429688 1.041954517364502 322.9794006347656 2.110772609710693 C 325.4204406738281 3.143272638320923 327.6128540039063 4.62145471572876 329.4956970214844 6.504318237304688 C 331.3785705566406 8.387182235717773 332.8567504882813 10.57959079742432 333.8892517089844 13.02063655853271 C 334.9580688476563 15.54768180847168 335.5000305175781 18.23231887817383 335.5000305175781 21 L 335.5000305175781 131 C 335.5000305175781 133.7677307128906 334.9580688476563 136.4523620605469 333.8892517089844 138.9793701171875 C 332.8567504882813 141.4204559326172 331.3785705566406 143.6128692626953 329.4956970214844 145.4956817626953 C 327.6128540039063 147.3785400390625 325.4204406738281 148.8567199707031 322.9794006347656 149.8892211914063 C 320.452392578125 150.9580383300781 317.7677001953125 151.5 315.0000305175781 151.5 Z" stroke="none"/>
      <path d="M 20.99996948242188 1 C 18.299560546875 1 15.680419921875 1.528640747070313 13.21539306640625 2.571273803710938 C 10.83392333984375 3.57855224609375 8.6949462890625 5.020767211914063 6.85784912109375 6.857864379882813 C 5.020751953125 8.694961547851563 3.578582763671875 10.83390808105469 2.571258544921875 13.21540832519531 C 1.52862548828125 15.68045043945313 0.999969482421875 18.29959106445313 0.999969482421875 21 L 0.999969482421875 21.62373352050781 L 0.439788818359375 21.89808654785156 L -15.9189453125 29.90944671630859 L 0.499664306640625 39.38099670410156 L 0.999969482421875 39.66959381103516 L 0.999969482421875 40.24718475341797 L 0.999969482421875 131 C 0.999969482421875 133.7004089355469 1.52862548828125 136.3195495605469 2.571258544921875 138.7845916748047 C 3.578582763671875 141.1660461425781 5.020751953125 143.3050384521484 6.85784912109375 145.1421356201172 C 8.6949462890625 146.9792327880859 10.83392333984375 148.4214019775391 13.21539306640625 149.4287261962891 C 15.680419921875 150.4713592529297 18.299560546875 151 20.99996948242188 151 L 314.9999694824219 151 C 317.7003784179688 151 320.3195190429688 150.4713592529297 322.7845764160156 149.4287261962891 C 325.1660766601563 148.4214019775391 327.3050231933594 146.9792327880859 329.1421203613281 145.1421356201172 C 330.9792175292969 143.3050384521484 332.4214172363281 141.1660461425781 333.4287109375 138.7845916748047 C 334.4713439941406 136.3195495605469 334.9999694824219 133.7004089355469 334.9999694824219 131 L 334.9999694824219 21 C 334.9999694824219 18.29959106445313 334.4713439941406 15.68045043945313 333.4287109375 13.21540832519531 C 332.4214172363281 10.83390808105469 330.9792175292969 8.694961547851563 329.1421203613281 6.857864379882813 C 327.3050231933594 5.020767211914063 325.1660766601563 3.57855224609375 322.7845764160156 2.571273803710938 C 320.3195190429688 1.528640747070313 317.7003784179688 1 314.9999694824219 1 L 20.99996948242188 1 M 20.99996948242188 0 L 314.9999694824219 0 C 326.5979919433594 0 335.9999694824219 9.401992797851563 335.9999694824219 21 L 335.9999694824219 131 C 335.9999694824219 142.5979614257813 326.5979919433594 152 314.9999694824219 152 L 20.99996948242188 152 C 9.402008056640625 152 -3.0517578125e-05 142.5979614257813 -3.0517578125e-05 131 L -3.0517578125e-05 40.24718475341797 L -18.04525756835938 29.83727264404297 L -3.0517578125e-05 21 C -3.0517578125e-05 9.401992797851563 9.402008056640625 0 20.99996948242188 0 Z" stroke="none" fill="#363636"/>
    </g>
  </g>
</svg>
